# xmcd
#
# Track frame offsets: 
#        150
#        12663
#        24902
#        37231
#        49227
#        61448
#        72908
#        83505
#        95758
#        107590
#        121919
#        139922
#        159119
#        172564
#        183476
#        196673
#
# Disc length: 2821 seconds
#
# Revision: 4
# Processed by: cddbd v1.5.2PL0 Copyright (c) Steve Scherf et al.
# Submitted via: ExactAudioCopy v1.3
#
DISCID=cc0b0310
DTITLE=Otis Redding - The Platinum Collection
DYEAR=2007
DGENRE=Soul
TTITLE0=(Sittin' On) The Dock Of The Bay
TTITLE1=Mr Pitiful
TTITLE2=I Can't Turn You Loose
TTITLE3=Shake
TTITLE4=You Left The Water Running
TTITLE5=These Arms Of Mine
TTITLE6=Hard To Handle
TTITLE7=Fa-Fa-Fa-Fa-Fa (Sad Song)
TTITLE8=Security
TTITLE9=My Lover's Prayer
TTITLE10=Cigarettes and Coffee
TTITLE11=A Change Is Gonna Come
TTITLE12=Down In The Valley
TTITLE13=Pain In My Heart
TTITLE14=My Girl
TTITLE15=Try A Little Tenderness
EXTD=
EXTT0=
EXTT1=
EXTT2=
EXTT3=
EXTT4=
EXTT5=
EXTT6=
EXTT7=
EXTT8=
EXTT9=
EXTT10=
EXTT11=
EXTT12=
EXTT13=
EXTT14=
EXTT15=
PLAYORDER=
